<svg fill="#000000" xmlns="http://www.w3.org/2000/svg"  viewBox="0 0 48 48" width="48px" height="48px"><path d="M 21 1 L 20 2 C 19.448 2 19 2.448 19 3 L 19 4 L 17 5 L 17 6 L 19 7 L 19 8.9804688 L 15.490234 8.9804688 A 1.50015 1.50015 0 0 0 13.990234 10.480469 L 13.990234 14 L 10.550781 14 L 10.550781 14.015625 C 10.317781 14.006625 10.067391 14 9.7753906 14 C 9.3473906 14 9 14.895 9 16 C 9 17.105 9.3473906 18 9.7753906 18 C 10.067391 18 10.318781 17.993375 10.550781 17.984375 L 10.550781 18 L 10 18 L 10 25 L 10 25.001953 C 9.856 24.999953 9.696 25 9.5 25 C 9.224 25 9 26.119 9 27.5 C 9 28.881 9.224 30 9.5 30 C 9.696 30 9.856 30.000047 10 29.998047 L 10 30 L 10 30.992188 C 10 31.544187 10.448 31.992188 11 31.992188 L 11.001953 31.992188 C 11.553953 31.992188 12.001953 31.544187 12.001953 30.992188 L 12.001953 29.998047 C 12.145515 30.000024 12.304766 30 12.5 30 C 12.776 30 13 28.881 13 27.5 C 13 26.119 12.776 25 12.5 25 C 12.304 25 12.144 24.999953 12 25.001953 L 12 25 L 12 18 L 13.990234 18 L 13.990234 31.498047 A 1.50015 1.50015 0 0 0 15.490234 32.998047 L 18 32.998047 L 18 35 C 17.448 35 17 36.119 17 37.5 C 17 38.881 17.448 40 18 40 L 18 42.390625 C 17.340734 42.671382 17 43 17 43 L 17 46 C 17 46.552 17.448 47 18 47 L 22 47 C 22.552 47 23 46.552 23 46 L 23 43 C 23 43 22.659266 42.671382 22 42.390625 L 22 40 C 22.552 40 23 38.881 23 37.5 C 23 36.119 22.552 35 22 35 L 22 32.998047 L 26 32.998047 L 26 35 C 25.448 35 25 36.119 25 37.5 C 25 38.881 25.448 40 26 40 L 26 42.390625 C 25.340734 42.671382 25 43 25 43 L 25 46 C 25 46.552 25.448 47 26 47 L 30 47 C 30.552 47 31 46.552 31 46 L 31 43 C 31 43 30.659266 42.671382 30 42.390625 L 30 40 C 30.552 40 31 38.881 31 37.5 C 31 36.119 30.552 35 30 35 L 30 32.998047 L 32.476562 32.998047 A 1.50015 1.50015 0 0 0 33.976562 31.498047 L 33.976562 18 L 36 18 L 36 25 L 36 25.001953 C 35.856 24.999953 35.696 25 35.5 25 C 35.224 25 35 26.119 35 27.5 C 35 28.881 35.224 30 35.5 30 C 35.695234 30 35.854485 30.000024 35.998047 29.998047 L 35.998047 30.992188 C 35.998047 31.544187 36.446047 31.992188 36.998047 31.992188 L 37 31.992188 C 37.552 31.992188 38 31.544187 38 30.992188 L 38 29.998047 C 38.144 30.000047 38.304 30 38.5 30 C 38.776 30 39 28.881 39 27.5 C 39 26.119 38.776 25 38.5 25 C 38.304 25 38.144 24.999953 38 25.001953 L 38 25 L 38 18 L 37.6875 18 L 37.6875 17.984375 C 37.8845 17.993375 38.09675 18 38.34375 18 C 38.70675 18 39 17.105 39 16 C 39 14.895 38.70675 14 38.34375 14 C 38.09675 14 37.882547 14.006625 37.685547 14.015625 L 37.685547 14 L 33.976562 14 L 33.976562 10.480469 A 1.50015 1.50015 0 0 0 32.476562 8.9804688 L 29 8.9804688 L 29 7 L 31 6 L 31 5 L 29 4 L 29 3 C 29 2.448 28.552 2 28 2 L 27 1 L 21 1 z M 20.996094 3.9707031 L 27.015625 3.9707031 C 27.568625 3.9707031 28.015625 4.4177031 28.015625 4.9707031 C 28.015625 5.5237031 27.567625 5.9707031 27.015625 5.9707031 L 20.996094 5.9707031 C 20.443094 5.9707031 19.996094 5.5237031 19.996094 4.9707031 C 19.996094 4.4177031 20.443094 3.9707031 20.996094 3.9707031 z M 16.990234 11.980469 L 30.976562 11.980469 L 30.976562 29.998047 L 16.990234 29.998047 L 16.990234 11.980469 z M 20 15 C 19.448 15 19 15.448 19 16 L 19 23 C 19 23.552 19.448 24 20 24 C 20.552 24 21 23.552 21 23 L 21 16 C 21 15.448 20.552 15 20 15 z M 24 15 C 22.895 15 22 15.895 22 17 L 22 22 C 22 23.105 22.895 24 24 24 C 25.105 24 26 23.105 26 22 L 26 17 C 26 15.895 25.105 15 24 15 z M 28 15 C 27.448 15 27 15.448 27 16 L 27 23 C 27 23.552 27.448 24 28 24 C 28.552 24 29 23.552 29 23 L 29 16 C 29 15.448 28.552 15 28 15 z M 19.988281 25.994141 A 1.0001 1.0001 0 1 0 19.988281 27.994141 L 28 27.994141 A 1.0001 1.0001 0 1 0 28 25.994141 L 19.988281 25.994141 z"/></svg>